<svg xmlns="http://www.w3.org/2000/svg" width="31.58" height="20.721" viewBox="0 0 31.58 20.721"><defs><style>.a{fill:#46b2ad;stroke:#46b2ad;stroke-width:0.7px;}</style></defs><path class="a" d="M27.813,0H3.066A3.064,3.064,0,0,0,0,3.066V16.955a3.064,3.064,0,0,0,3.066,3.066H27.813a3.064,3.064,0,0,0,3.066-3.066V3.066A3.064,3.064,0,0,0,27.813,0Zm-6.89,9.307L29.581,2.2a1.714,1.714,0,0,1,.216.866V16.955a2.14,2.14,0,0,1-.18.83Zm6.89-8.225a1.718,1.718,0,0,1,1.046.325L15.44,12.373,2.02,1.407a1.718,1.718,0,0,1,1.046-.325ZM1.263,17.785a2,2,0,0,1-.18-.83V3.066A1.714,1.714,0,0,1,1.3,2.2L9.993,9.307Zm1.8,1.154a1.828,1.828,0,0,1-1.082-.325l8.838-8.622L15.44,13.78l4.618-3.788L28.9,18.614a1.909,1.909,0,0,1-1.082.325Z" transform="translate(0.35 0.35)"/></svg>